<svg width="800" height="600" viewBox="0 0 800 600" xmlns="http://www.w3.org/2000/svg">
  <!-- Sky -->
  <rect width="800" height="600" fill="#87CEEB"/>
  
  <!-- Building -->
  <rect x="200" y="100" width="400" height="450" fill="#D3D3D3"/>
  
  <!-- Building Top -->
  <rect x="180" y="80" width="440" height="40" fill="#A9A9A9"/>
  
  <!-- Windows Grid -->
  <!-- Floor 1 -->
  <rect x="230" y="140" width="60" height="60" fill="#87CEFA"/>
  <rect x="320" y="140" width="60" height="60" fill="#87CEFA"/>
  <rect x="410" y="140" width="60" height="60" fill="#87CEFA"/>
  <rect x="500" y="140" width="60" height="60" fill="#87CEFA"/>
  
  <!-- Floor 2 -->
  <rect x="230" y="220" width="60" height="60" fill="#87CEFA"/>
  <rect x="320" y="220" width="60" height="60" fill="#87CEFA"/>
  <rect x="410" y="220" width="60" height="60" fill="#87CEFA"/>
  <rect x="500" y="220" width="60" height="60" fill="#87CEFA"/>
  
  <!-- Floor 3 -->
  <rect x="230" y="300" width="60" height="60" fill="#87CEFA"/>
  <rect x="320" y="300" width="60" height="60" fill="#87CEFA"/>
  <rect x="410" y="300" width="60" height="60" fill="#87CEFA"/>
  <rect x="500" y="300" width="60" height="60" fill="#87CEFA"/>
  
  <!-- Floor 4 -->
  <rect x="230" y="380" width="60" height="60" fill="#87CEFA"/>
  <rect x="320" y="380" width="60" height="60" fill="#87CEFA"/>
  <rect x="410" y="380" width="60" height="60" fill="#87CEFA"/>
  <rect x="500" y="380" width="60" height="60" fill="#87CEFA"/>
  
  <!-- Entrance -->
  <rect x="350" y="460" width="100" height="90" fill="#654321"/>
  
  <!-- Window Frames -->
  <g stroke="#2F4F4F" stroke-width="2" fill="none">
    <!-- Floor 1 -->
    <rect x="230" y="140" width="60" height="60"/>
    <rect x="320" y="140" width="60" height="60"/>
    <rect x="410" y="140" width="60" height="60"/>
    <rect x="500" y="140" width="60" height="60"/>
    
    <!-- Floor 2 -->
    <rect x="230" y="220" width="60" height="60"/>
    <rect x="320" y="220" width="60" height="60"/>
    <rect x="410" y="220" width="60" height="60"/>
    <rect x="500" y="220" width="60" height="60"/>
    
    <!-- Floor 3 -->
    <rect x="230" y="300" width="60" height="60"/>
    <rect x="320" y="300" width="60" height="60"/>
    <rect x="410" y="300" width="60" height="60"/>
    <rect x="500" y="300" width="60" height="60"/>
    
    <!-- Floor 4 -->
    <rect x="230" y="380" width="60" height="60"/>
    <rect x="320" y="380" width="60" height="60"/>
    <rect x="410" y="380" width="60" height="60"/>
    <rect x="500" y="380" width="60" height="60"/>
  </g>
  
  <!-- Balconies -->
  <rect x="210" y="200" width="20" height="80" fill="#A9A9A9"/>
  <rect x="570" y="280" width="20" height="80" fill="#A9A9A9"/>
  
  <!-- Street -->
  <rect y="550" width="800" height="50" fill="#696969"/>
  
  <!-- Street Lines -->
  <rect y="570" width="800" height="5" fill="#FFFF00"/>
</svg>