<svg width="800" height="600" viewBox="0 0 800 600" xmlns="http://www.w3.org/2000/svg">
  <!-- Sky -->
  <rect width="800" height="400" fill="#87CEEB"/>
  
  <!-- Ground -->
  <rect y="400" width="800" height="200" fill="#90EE90"/>
  
  <!-- House Base -->
  <rect x="200" y="250" width="400" height="250" fill="#D2B48C"/>
  
  <!-- Roof -->
  <polygon points="150,250 400,150 650,250" fill="#8B4513"/>
  
  <!-- Door -->
  <rect x="350" y="400" width="100" height="100" fill="#654321"/>
  <circle cx="430" cy="450" r="5" fill="#FFD700"/>
  
  <!-- Windows -->
  <rect x="250" y="300" width="80" height="80" fill="#87CEFA"/>
  <rect x="470" y="300" width="80" height="80" fill="#87CEFA"/>
  
  <!-- Window Frames -->
  <rect x="250" y="300" width="80" height="80" fill="none" stroke="#654321" stroke-width="3"/>
  <line x1="290" y1="300" x2="290" y2="380" stroke="#654321" stroke-width="2"/>
  <line x1="250" y1="340" x2="330" y2="340" stroke="#654321" stroke-width="2"/>
  
  <rect x="470" y="300" width="80" height="80" fill="none" stroke="#654321" stroke-width="3"/>
  <line x1="510" y1="300" x2="510" y2="380" stroke="#654321" stroke-width="2"/>
  <line x1="470" y1="340" x2="550" y2="340" stroke="#654321" stroke-width="2"/>
  
  <!-- Chimney -->
  <rect x="500" y="180" width="40" height="80" fill="#8B4513"/>
  
  <!-- Trees -->
  <circle cx="100" cy="350" r="50" fill="#228B22"/>
  <rect x="90" y="350" width="20" height="50" fill="#8B4513"/>
  
  <circle cx="700" cy="370" r="40" fill="#228B22"/>
  <rect x="690" y="370" width="20" height="30" fill="#8B4513"/>
</svg>