<svg width="800" height="600" viewBox="0 0 800 600" xmlns="http://www.w3.org/2000/svg">
  <!-- Background -->
  <rect width="800" height="600" fill="#F5F5F5"/>
  
  <!-- Building -->
  <rect x="100" y="100" width="600" height="400" fill="#E6E6FA"/>
  
  <!-- Brick Pattern -->
  <g stroke="#D3D3D3" stroke-width="1" fill="none">
    <line x1="100" y1="130" x2="700" y2="130"/>
    <line x1="100" y1="160" x2="700" y2="160"/>
    <line x1="100" y1="190" x2="700" y2="190"/>
    <line x1="100" y1="220" x2="700" y2="220"/>
    <line x1="100" y1="250" x2="700" y2="250"/>
    <line x1="100" y1="280" x2="700" y2="280"/>
    <line x1="100" y1="310" x2="700" y2="310"/>
    <line x1="100" y1="340" x2="700" y2="340"/>
    <line x1="100" y1="370" x2="700" y2="370"/>
    <line x1="100" y1="400" x2="700" y2="400"/>
    <line x1="100" y1="430" x2="700" y2="430"/>
    <line x1="100" y1="460" x2="700" y2="460"/>
  </g>
  
  <!-- Large Industrial Windows -->
  <rect x="150" y="150" width="200" height="150" fill="#87CEFA"/>
  <rect x="450" y="150" width="200" height="150" fill="#87CEFA"/>
  
  <!-- Window Grid -->
  <g stroke="#2F4F4F" stroke-width="3" fill="none">
    <rect x="150" y="150" width="200" height="150"/>
    <rect x="450" y="150" width="200" height="150"/>
    
    <!-- Grid Lines -->
    <line x1="200" y1="150" x2="200" y2="300"/>
    <line x1="250" y1="150" x2="250" y2="300"/>
    <line x1="300" y1="150" x2="300" y2="300"/>
    <line x1="150" y1="200" x2="350" y2="200"/>
    <line x1="150" y1="250" x2="350" y2="250"/>
    
    <line x1="500" y1="150" x2="500" y2="300"/>
    <line x1="550" y1="150" x2="550" y2="300"/>
    <line x1="600" y1="150" x2="600" y2="300"/>
    <line x1="450" y1="200" x2="650" y2="200"/>
    <line x1="450" y1="250" x2="650" y2="250"/>
  </g>
  
  <!-- Entrance -->
  <rect x="350" y="350" width="100" height="150" fill="#654321"/>
  <rect x="360" y="360" width="80" height="130" fill="#8B4513"/>
  
  <!-- Fire Escape -->
  <rect x="680" y="200" width="20" height="250" fill="#696969"/>
  <rect x="660" y="220" width="40" height="5" fill="#696969"/>
  <rect x="660" y="270" width="40" height="5" fill="#696969"/>
  <rect x="660" y="320" width="40" height="5" fill="#696969"/>
  <rect x="660" y="370" width="40" height="5" fill="#696969"/>
  <rect x="660" y="420" width="40" height="5" fill="#696969"/>
  
  <!-- Street -->
  <rect y="500" width="800" height="100" fill="#696969"/>
  
  <!-- Sidewalk -->
  <rect y="480" width="800" height="20" fill="#D3D3D3"/>
  
  <!-- Street Art/Graffiti -->
  <circle cx="200" cy="400" r="30" fill="#FF69B4" opacity="0.7"/>
  <rect x="180" y="380" width="40" height="40" fill="#32CD32" opacity="0.7"/>
  
  <!-- Urban Elements -->
  <rect x="50" y="450" width="10" height="50" fill="#2F4F4F"/>
  <rect x="750" y="450" width="10" height="50" fill="#2F4F4F"/>
</svg>