<svg width="800" height="600" viewBox="0 0 800 600" xmlns="http://www.w3.org/2000/svg">
  <!-- Sky -->
  <rect width="800" height="400" fill="#87CEEB"/>
  
  <!-- Ground -->
  <rect y="400" width="800" height="200" fill="#90EE90"/>
  
  <!-- Main House -->
  <rect x="150" y="200" width="500" height="300" fill="#F5DEB3"/>
  
  <!-- Main Roof -->
  <polygon points="100,200 400,100 700,200" fill="#8B4513"/>
  
  <!-- Left Wing -->
  <rect x="50" y="250" width="150" height="250" fill="#F5DEB3"/>
  <polygon points="25,250 125,180 225,250" fill="#8B4513"/>
  
  <!-- Right Wing -->
  <rect x="600" y="250" width="150" height="250" fill="#F5DEB3"/>
  <polygon points="575,250 675,180 775,250" fill="#8B4513"/>
  
  <!-- Main Entrance -->
  <rect x="350" y="350" width="100" height="150" fill="#654321"/>
  <circle cx="430" cy="425" r="5" fill="#FFD700"/>
  
  <!-- Columns -->
  <rect x="320" y="350" width="15" height="150" fill="#DCDCDC"/>
  <rect x="465" y="350" width="15" height="150" fill="#DCDCDC"/>
  
  <!-- Windows Main House -->
  <rect x="200" y="250" width="80" height="80" fill="#87CEFA"/>
  <rect x="520" y="250" width="80" height="80" fill="#87CEFA"/>
  <rect x="300" y="250" width="60" height="60" fill="#87CEFA"/>
  <rect x="440" y="250" width="60" height="60" fill="#87CEFA"/>
  
  <!-- Windows Left Wing -->
  <rect x="80" y="300" width="60" height="60" fill="#87CEFA"/>
  <rect x="80" y="380" width="60" height="60" fill="#87CEFA"/>
  
  <!-- Windows Right Wing -->
  <rect x="660" y="300" width="60" height="60" fill="#87CEFA"/>
  <rect x="660" y="380" width="60" height="60" fill="#87CEFA"/>
  
  <!-- Pool -->
  <ellipse cx="400" cy="520" rx="120" ry="40" fill="#00BFFF"/>
  
  <!-- Pool Deck -->
  <rect x="250" y="480" width="300" height="80" fill="#D2B48C"/>
  
  <!-- Garden -->
  <circle cx="100" cy="450" r="30" fill="#228B22"/>
  <circle cx="700" cy="450" r="30" fill="#228B22"/>
  <circle cx="150" cy="520" r="25" fill="#FF69B4"/>
  <circle cx="650" cy="520" r="25" fill="#FF69B4"/>
  
  <!-- Driveway -->
  <rect x="0" y="580" width="200" height="20" fill="#696969"/>
  <rect x="600" y="580" width="200" height="20" fill="#696969"/>
</svg>